<?xml version="1.0" encoding="UTF-8"?> <svg xmlns="http://www.w3.org/2000/svg" width="52.633" height="39.111" viewBox="0 0 52.633 39.111"><path id="Path_1" data-name="Path 1" d="M70.644-1088.752c-1.432-8.048-7.635-13.053-15.784-12.54a21.583,21.583,0,0,0-11.177,4.314,2.748,2.748,0,0,1-2.383.478,34.176,34.176,0,0,0-8.978-.755c-6.869.31-11.934,4.059-13.457,10.045a18.14,18.14,0,0,0,.847,11.508c1.451,3.586,3.425,6.758,7.483,7.931.658.19.715.647.268,1.124-1.012,1.082-.508,2,.348,2.8a5.324,5.324,0,0,0,7.227.393,15.383,15.383,0,0,1,4.184-2.471c-.625,1.659-.325,2.192,1.5,2.253a34.14,34.14,0,0,0,16.635-3.218c2.086-1.036,2.17-1.321,1.337-3.643a10.85,10.85,0,0,1,3.98,2.507,2.093,2.093,0,0,0,3.595-.721,5.437,5.437,0,0,0,.135-3.954c-.3-.961-.292-1.613.7-2.232a6.229,6.229,0,0,0,2.2-3.009A18.582,18.582,0,0,0,70.644-1088.752Zm-40,16.015c-.174,1.041-.75.951-1.431.437-3.1-2.338-4.481-5.506-4.577-10.771-.168-4.149,3.892-9.53,11.46-8.649,1.135.132,1.342.53.835,1.573C34.217-1084.57,31.677-1078.924,30.643-1072.737Zm26.407-1.544a10.548,10.548,0,0,1-4.715,3.232,29.317,29.317,0,0,1-9.737,1.585,40.022,40.022,0,0,1-5.274-.5c-.986-.165-1.4-.469-1.038-1.6,1.18-3.671,1.983-7.458,3.341-11.076a12.516,12.516,0,0,1,2.573-4.685,2.8,2.8,0,0,1,4.091-.387,27.16,27.16,0,0,1,4.892,4.986,84.461,84.461,0,0,0,5.829,6.711C57.661-1075.4,57.536-1074.9,57.05-1074.281Zm6.774-5.322c-.458,1.439-.837,1.532-1.9.466-2.286-2.3-4.353-4.791-6.458-7.251a55.4,55.4,0,0,0-5.3-5.566c-.83-.734-.638-1.187.171-1.765,5.847-4.181,13.548-.613,14.364,6.677.075.668.1,1.341.153,2.012A21.527,21.527,0,0,1,63.824-1079.6Z" transform="translate(-18.297 1101.328)" fill="#404040"></path></svg> 